<svg xmlns="http://www.w3.org/2000/svg" xmlns:xlink="http://www.w3.org/1999/xlink" version="1.1" x="0px" y="0px" viewBox="0 0 24 30" enable-background="new 0 0 24 24" xml:space="preserve"><g><path d="M15.256,22.219c0.034,0.009,0.069,0.014,0.104,0.014c0.141,0,0.274-0.074,0.347-0.2l1.79-3.108h4.762   c0.462,0,0.894-0.179,1.217-0.505c0.324-0.33,0.503-0.76,0.503-1.212V3.487c0-0.458-0.18-0.889-0.504-1.213   c-0.324-0.326-0.756-0.506-1.216-0.506H1.743c-0.45,0-0.893,0.183-1.214,0.501C0.202,2.593,0.022,3.025,0.022,3.487v13.721   c0,0.463,0.181,0.896,0.505,1.215c0.324,0.324,0.756,0.502,1.216,0.502h13.216v2.908C14.959,22.014,15.081,22.173,15.256,22.219z    M1.743,18.125c-0.246,0-0.477-0.095-0.652-0.271c-0.173-0.17-0.268-0.4-0.268-0.647V3.487c0-0.247,0.095-0.477,0.271-0.649   c0.172-0.172,0.408-0.271,0.649-0.271h20.515c0.245,0,0.476,0.096,0.648,0.271c0.175,0.175,0.271,0.405,0.271,0.649v13.721   c0,0.241-0.097,0.472-0.271,0.65c-0.171,0.172-0.4,0.268-0.647,0.268h-4.992c-0.143,0-0.274,0.076-0.347,0.2l-1.159,2.012v-1.812   c0-0.221-0.18-0.4-0.4-0.4H1.743z"/><path d="M20.502,14.11c0-0.221-0.18-0.4-0.4-0.4H4.276c-0.221,0-0.4,0.179-0.4,0.4s0.18,0.4,0.4,0.4h15.825   C20.322,14.51,20.502,14.33,20.502,14.11z"/><path d="M4.276,10.478h15.825c0.221,0,0.4-0.179,0.4-0.4s-0.18-0.4-0.4-0.4H4.276c-0.221,0-0.4,0.179-0.4,0.4   S4.056,10.478,4.276,10.478z"/><path d="M4.276,6.916h15.825c0.221,0,0.4-0.179,0.4-0.4s-0.18-0.4-0.4-0.4H4.276c-0.221,0-0.4,0.179-0.4,0.4   S4.056,6.916,4.276,6.916z"/></g></svg>