<svg xmlns="http://www.w3.org/2000/svg" xmlns:xlink="http://www.w3.org/1999/xlink" version="1.1" x="0px" y="0px" viewBox="0 0 100 125" enable-background="new 0 0 100 100" xml:space="preserve"><path d="M7.8,89.5h84.4c3.7,0,6.8-3,6.8-6.8V17.2c0-3.7-3-6.8-6.8-6.8H7.8c-3.7,0-6.8,3-6.8,6.8v65.5C1,86.5,4.1,89.5,7.8,89.5z   M92.2,86H7.8c-1.8,0-3.3-1.5-3.3-3.3V32.9h91v49.9C95.5,84.6,94,86,92.2,86z M7.8,14h84.4c1.8,0,3.3,1.5,3.3,3.3v12.1h-91V17.2  C4.5,15.4,6,14,7.8,14z M11,22.9c-0.3-0.3-0.5-0.8-0.5-1.2s0.2-0.9,0.5-1.2c0.6-0.6,1.8-0.6,2.5,0c0.3,0.3,0.5,0.8,0.5,1.2  s-0.2,0.9-0.5,1.2c-0.3,0.3-0.8,0.5-1.2,0.5S11.3,23.2,11,22.9z M20.4,22.9c-0.3-0.3-0.5-0.8-0.5-1.2s0.2-0.9,0.5-1.2  c0.6-0.6,1.8-0.6,2.5,0c0.3,0.3,0.5,0.8,0.5,1.2s-0.2,0.9-0.5,1.2c-0.3,0.3-0.8,0.5-1.2,0.5C21.2,23.4,20.7,23.2,20.4,22.9z   M29.9,22.9c-0.3-0.3-0.5-0.8-0.5-1.2s0.2-0.9,0.5-1.2c0.7-0.6,1.8-0.6,2.5,0c0.3,0.3,0.5,0.8,0.5,1.2s-0.2,0.9-0.5,1.2  c-0.3,0.3-0.8,0.5-1.2,0.5S30.2,23.2,29.9,22.9z M50.1,41.3c-16.5,0-28.1,16.2-28.6,16.9c-0.4,0.6-0.4,1.4,0,2  C22,60.8,33.6,77,50.1,77c16.5,0,28.1-16.2,28.6-16.9c0.4-0.6,0.4-1.4,0-2C78.2,57.4,66.7,41.3,50.1,41.3z M50.1,73.5  c-12.5,0-22.2-10.9-24.9-14.4c2.7-3.4,12.5-14.4,24.9-14.4c12.5,0,22.2,10.9,24.9,14.4C72.3,62.5,62.6,73.5,50.1,73.5z M50.1,49.9  c-4.8,0-8.8,3.9-8.8,8.8c0,4.8,3.9,8.8,8.8,8.8s8.8-3.9,8.8-8.8C58.9,53.8,55,49.9,50.1,49.9z M50.1,64c-2.9,0-5.3-2.4-5.3-5.3  s2.4-5.3,5.3-5.3s5.3,2.4,5.3,5.3S53,64,50.1,64z"/></svg>