<svg xmlns="http://www.w3.org/2000/svg" viewBox="0 0 32 40" x="0px" y="0px"><title>Artboard 12</title><g><path d="M27.66,12.25l-5-5h0L19.12,3.71a3,3,0,0,0-4.28,0,3,3,0,0,0,0,4.24l3.55,3.55,5,5a3,3,0,0,0,2.11.87,3.08,3.08,0,0,0,2.18-.91,3,3,0,0,0,.88-2.12A3,3,0,0,0,27.66,12.25ZM16,5.87a1,1,0,0,1,.33-.75,1,1,0,0,1,1.42,0l1.57,1.57a3.14,3.14,0,0,0-.89.61,3,3,0,0,0-.58.84L16.25,6.58A1,1,0,0,1,16,5.87Z"/><path d="M21.88,25.69a2,2,0,0,1-1.41-.58l-6.39-6.39-1.46,1.44a1,1,0,0,1-1.41,0,1,1,0,0,1,0-1.42l1.44-1.43a2,2,0,0,1,2.84,0l6.39,6.38,5.76-5.75-1.42-1.43a1,1,0,0,1,1.42-1.42l1.42,1.43a2,2,0,0,1,.59,1.41,2,2,0,0,1-.59,1.42L23.3,25.11A2,2,0,0,1,21.88,25.69Z"/><path d="M13.27,19.39,12,18.09h0a1.76,1.76,0,0,0-2.48,0L3.38,24.2a1.76,1.76,0,0,0,0,2.48L4.68,28a1.75,1.75,0,0,0,1.24.52h0A1.79,1.79,0,0,0,7.17,28l6.1-6.11A1.74,1.74,0,0,0,13.27,19.39Z"/></g></svg>