<svg xmlns:x="http://ns.adobe.com/Extensibility/1.0/" xmlns:i="http://ns.adobe.com/AdobeIllustrator/10.0/" xmlns:graph="http://ns.adobe.com/Graphs/1.0/" xmlns="http://www.w3.org/2000/svg" xmlns:xlink="http://www.w3.org/1999/xlink" version="1.1" x="0px" y="0px" viewBox="0 0 100 125" enable-background="new 0 0 100 100" xml:space="preserve"><metadata><sfw xmlns="http://ns.adobe.com/SaveForWeb/1.0/"><slices/><sliceSourceBounds width="1449" height="1446.4" y="-1446.7" x="0.5" bottomLeftOrigin="true"/></sfw></metadata><path d="M89.3,87.6c4,0,7.2-3.2,7.2-7.2V19.5c0-4-3.2-7.2-7.2-7.2H10.7c-4,0-7.2,3.2-7.2,7.2v60.9c0,4,3.2,7.2,7.2,7.2H89.3z   M10.7,17.4h78.5c1.2,0,2.2,1,2.2,2.2v10.4H8.6V19.5C8.6,18.3,9.5,17.4,10.7,17.4z M8.6,80.5V34.9h82.9v45.5c0,1.2-1,2.2-2.2,2.2  H10.7C9.5,82.6,8.6,81.7,8.6,80.5z M21.9,23.6c0-1.7,1.4-3,3-3s3,1.4,3,3c0,1.7-1.4,3-3,3S21.9,25.3,21.9,23.6z M31.9,23.6  c0-1.7,1.4-3,3-3c1.7,0,3,1.4,3,3c0,1.7-1.4,3-3,3C33.3,26.7,31.9,25.3,31.9,23.6z M11.9,23.6c0-1.7,1.4-3,3-3s3,1.4,3,3  c0,1.7-1.4,3-3,3S11.9,25.3,11.9,23.6z M69.8,49c4.7,3.9,7.5,7.9,7.6,8c0.6,0.9,0.6,2,0,2.9c-0.5,0.7-11.4,16-27.3,16  c-1.3,0-2.5-0.1-3.8-0.3c-1.4-0.2-2.3-1.5-2.1-2.9c0.2-1.4,1.5-2.3,2.9-2.1c1,0.2,2,0.2,3,0.2c10.7,0,19.1-8.9,22.1-12.5  c-1.1-1.4-3-3.5-5.6-5.6c-1.1-0.9-1.2-2.5-0.3-3.5C67.2,48.3,68.7,48.1,69.8,49z M34,70.6l-4.1,4.1c-1,1-1,2.6,0,3.5  c0.5,0.5,1.1,0.7,1.8,0.7s1.3-0.2,1.8-0.7l23-23c0,0,0,0,0,0c0,0,0,0,0,0l13.7-13.8c1-1,1-2.6,0-3.5c-1-1-2.6-1-3.5,0l-5.6,5.6  c-3.7-1.7-7.4-2.5-11-2.5c-15.8,0-26.8,15.4-27.3,16c-0.6,0.9-0.6,2,0,2.9C23,60.2,27.2,66.1,34,70.6z M46.1,58.1  c0-2.2,1.8-4.1,4.1-4.1c0.2,0,0.3,0,0.5,0l-4.5,4.5C46.1,58.4,46.1,58.2,46.1,58.1z M50.1,46c2.4,0,4.8,0.5,7.2,1.3l-2.8,2.8  c-1.3-0.7-2.8-1.1-4.4-1.1c-5,0-9.1,4.1-9.1,9.1c0,1.5,0.4,3,1.1,4.4L37.6,67c-4.5-2.8-7.9-6.5-9.6-8.5C31,54.9,39.5,46,50.1,46z"/></svg>