<svg xmlns:dc="http://purl.org/dc/elements/1.1/" xmlns:cc="http://creativecommons.org/ns#" xmlns:rdf="http://www.w3.org/1999/02/22-rdf-syntax-ns#" xmlns:svg="http://www.w3.org/2000/svg" xmlns="http://www.w3.org/2000/svg" xmlns:sodipodi="http://sodipodi.sourceforge.net/DTD/sodipodi-0.dtd" xmlns:inkscape="http://www.inkscape.org/namespaces/inkscape" viewBox="0 0 95 118.75" version="1.1" x="0px" y="0px"><title>25-line-icons</title><g transform="scale(1.0006163,1)"><path d="M 55.09,93.13 H 2.5 C 1.1192881,93.13 0,92.010712 0,90.63 V 4.37 C 0,2.9892881 1.1192881,1.87 2.5,1.87 h 67.93 c 1.380712,0 2.5,1.1192881 2.5,2.5 v 25.44 h -5 V 6.87 H 5 v 81.26 h 50.09 z"/><path d="m 70.43,77.78 c -1.383011,0.0056 -2.505566,-1.116989 -2.5,-2.5 V 46.93 h 5 v 28.35 c 0.0056,1.383011 -1.116989,2.505566 -2.5,2.5 z"/><path d="M 42.79,68.52 A 2.47,2.47 0 0 1 41,67.78 2.52,2.52 0 0 1 40.37,65.29 L 44.14,53 a 2.47,2.47 0 0 1 0.63,-1 L 80.39,16.31 a 8.56,8.56 0 0 1 12.11,12.1 v 0 L 56.87,64 a 2.51,2.51 0 0 1 -1,0.62 l -12.36,3.79 a 2.57,2.57 0 0 1 -0.72,0.11 z m 6,-13.49 -2.2,7.23 7.23,-2.2 L 89,24.87 v 0 a 3.56,3.56 0 0 0 -5,-5 z m 42,-28.39 z"/><path d="M 83.84,33.53 75.28,25 78.81,21.47 87.37,30 Z"/><path d="m 52.7,63 c -1.000918,-3.262091 -3.538346,-5.825679 -6.79,-6.86 l 1.25,-4.85 c 4.934327,1.490958 8.805527,5.335925 10.33,10.26 z"/><path d="M 37.9,17.06 H 13.39 a 2.5,2.5 0 0 1 0,-5 H 37.9 a 2.5,2.5 0 1 1 0,5 z"/><path d="m 58.79,30.23 h -45.4 a 2.5,2.5 0 0 1 0,-5 h 45.4 a 2.5,2.5 0 0 1 0,5 z"/><path d="M 47.68,43.41 H 13.39 a 2.5,2.5 0 0 1 0,-5 h 34.29 a 2.5,2.5 0 1 1 0,5 z"/><path d="M 37.9,56.59 H 13.39 a 2.5,2.5 0 0 1 0,-5 H 37.9 a 2.5,2.5 0 1 1 0,5 z"/><path d="m 42.79,68.52 h -29.4 c -3.333332,0 -3.333332,-5 0,-5 h 29.4 z"/><path d="m 55.09,93.13 a 2.5,2.5 0 0 1 -2.5,-2.5 V 75.28 a 2.5,2.5 0 0 1 2.5,-2.5 h 15.35 a 2.5,2.5 0 0 1 1.76,4.27 L 56.86,92.4 a 2.54,2.54 0 0 1 -1.77,0.73 z m 2.5,-15.35 v 6.81 l 6.81,-6.81 z"/></g></svg>