<svg xmlns:dc="http://purl.org/dc/elements/1.1/" xmlns:cc="http://creativecommons.org/ns#" xmlns:rdf="http://www.w3.org/1999/02/22-rdf-syntax-ns#" xmlns:svg="http://www.w3.org/2000/svg" xmlns="http://www.w3.org/2000/svg" xmlns:sodipodi="http://sodipodi.sourceforge.net/DTD/sodipodi-0.dtd" xmlns:inkscape="http://www.inkscape.org/namespaces/inkscape" viewBox="0 0 6.3499999 7.93750025" version="1.1" x="0px" y="0px"><g transform="translate(0,-290.64999)"><path style="color:#000000;font-style:normal;font-variant:normal;font-weight:normal;font-stretch:normal;font-size:medium;line-height:normal;font-family:sans-serif;font-variant-ligatures:normal;font-variant-position:normal;font-variant-caps:normal;font-variant-numeric:normal;font-variant-alternates:normal;font-feature-settings:normal;text-indent:0;text-align:start;text-decoration:none;text-decoration-line:none;text-decoration-style:solid;text-decoration-color:#000000;letter-spacing:normal;word-spacing:normal;text-transform:none;writing-mode:lr-tb;direction:ltr;text-orientation:mixed;dominant-baseline:auto;baseline-shift:baseline;text-anchor:start;white-space:normal;shape-padding:0;clip-rule:nonzero;display:inline;overflow:visible;visibility:visible;opacity:1;isolation:auto;mix-blend-mode:normal;color-interpolation:sRGB;color-interpolation-filters:linearRGB;solid-color:#000000;solid-opacity:1;vector-effect:none;fill:#000000;fill-opacity:1;fill-rule:evenodd;stroke:none;stroke-width:2;stroke-linecap:round;stroke-linejoin:round;stroke-miterlimit:4;stroke-dasharray:none;stroke-dashoffset:0;stroke-opacity:1;paint-order:stroke fill markers;color-rendering:auto;image-rendering:auto;shape-rendering:auto;text-rendering:auto;enable-background:accumulate" d="M 10.001953 0.99804688 C 5.0432293 0.99804688 0.99608623 5.0373914 0.99609375 9.9960938 C 0.99610966 14.954796 5.0432459 19.001953 10.001953 19.001953 C 12.121923 19.001953 14.07114 18.25788 15.611328 17.023438 L 21.289062 22.708984 A 1.0021986 1.0021986 0 1 0 22.707031 21.291016 L 17.025391 15.609375 C 18.258806 14.067475 19.001946 12.116555 19.001953 9.9960938 C 19.00196 5.0373914 14.960677 0.99804688 10.001953 0.99804688 z M 10.001953 2.9980469 C 13.879795 2.9980469 17.000006 6.1182607 17 9.9960938 C 16.999988 13.873927 13.879782 17.001953 10.001953 17.001953 C 6.1241239 17.001953 2.9961062 13.873927 2.9960938 9.9960938 C 2.9960879 6.1182607 6.1241106 2.9980469 10.001953 2.9980469 z " transform="matrix(0.26458334,0,0,0.26458334,0,290.64999)"/></g></svg>