<svg xmlns="http://www.w3.org/2000/svg" xmlns:xlink="http://www.w3.org/1999/xlink" version="1.1" x="0px" y="0px" viewBox="0 0 512 640" style="enable-background:new 0 0 512 512;" xml:space="preserve"><g><path d="M256,31.5c-60.7,0-117.8,23.3-160.8,65.7C52.2,139.6,28.5,196,28.5,256s23.7,116.4,66.7,158.8   c43,42.4,100,65.7,160.8,65.7s117.8-23.3,160.8-65.7c43-42.4,66.7-98.8,66.7-158.8s-23.7-116.4-66.7-158.8   C373.8,54.8,316.7,31.5,256,31.5z M256,450.5c-108.9,0-197.5-87.3-197.5-194.5S147.1,61.5,256,61.5S453.5,148.8,453.5,256   S364.9,450.5,256,450.5z"/><path d="M354.1,321L269,255.5V126.1c0-8.3-6.7-15-15-15s-15,6.7-15,15v136.8c0,4.7,2,9.1,5.7,11.9l91.1,70   c2.7,2.1,5.9,3.1,9.1,3.1c4.5,0,9-2,12-5.9C361.9,335.5,360.7,326.1,354.1,321z"/></g></svg>