<svg xmlns="http://www.w3.org/2000/svg" xmlns:xlink="http://www.w3.org/1999/xlink" version="1.1" x="0px" y="0px" viewBox="0 0 100 125" enable-background="new 0 0 100 100" xml:space="preserve"><g><path d="M66.17,53.795c-0.105,4.857-7.305,8.777-16.169,8.777c-8.867,0-16.065-3.92-16.171-8.777   C20.265,55.035,9.64,66.438,9.64,80.322C9.64,95.037,21.568,95,36.281,95h27.44c14.711,0,26.639,0.037,26.639-14.678   C90.359,66.438,79.736,55.035,66.17,53.795z"/><path d="M29.847,29.715c0.014,0.193,0.031,0.383,0.049,0.574C31.181,44.836,39.692,56.074,50,56.074   c10.306,0,18.818-11.238,20.105-25.785c0.016-0.191,0.031-0.381,0.047-0.574c0.092-0.631,0.152-1.27,0.189-1.918   c0.027-0.443,0.043-0.887,0.043-1.338c0-1.107-0.08-2.193-0.232-3.256C68.662,12.896,60.207,5,50,5   c-10.207,0-18.663,7.896-20.153,18.203c-0.154,1.063-0.232,2.148-0.232,3.256c0,0.451,0.018,0.895,0.041,1.338   C29.695,28.445,29.755,29.084,29.847,29.715z"/></g></svg>